<?xml version="1.0" encoding="UTF-8" standalone="no"?>
<!-- Created with Inkscape (http://www.inkscape.org/) -->

<svg
   width="3999.9998"
   height="1000.0001"
   viewBox="0 0 1058.3332 264.58335"
   version="1.1"
   id="svg1"
   xmlns="http://www.w3.org/2000/svg"
   xmlns:svg="http://www.w3.org/2000/svg">
  <defs
     id="defs1" />
  <g
     id="layer1">
    <rect
       style="display:none;fill:#000000;stroke-width:1.05833"
       id="rect4"
       width="1281.1412"
       height="363.79248"
       x="8.668252"
       y="-62.175446" />
    <path
       id="path1"
       style="display:none;fill:#ffffff;stroke-width:1.05834"
       d="m 538.0455,98.210107 c -22.65499,0.01089 -45.32386,9.579933 -51.7851,42.220043 12.08424,-5.9751 33.02862,-16.22735 51.7851,-16.24122 18.75647,0.0139 39.70186,10.26612 51.7861,16.24122 -6.46124,-32.64011 -29.13112,-42.208924 -51.7861,-42.220043 z m -1.96729,30.979983 c -0.47676,0 -0.86072,0.29024 -0.86072,0.65083 v 31.09299 c 0,0.36058 0.38396,0.65083 0.86072,0.65083 h 3.93526 c 0.47674,0 0.86037,-0.29025 0.86037,-0.65083 v -31.09299 c 0,-0.36059 -0.38363,-0.65083 -0.86037,-0.65083 z m -41.20327,15.49183 c -0.19318,0.0267 -0.39651,0.12777 -0.56506,0.29632 l -2.7826,2.7826 c -0.33713,0.33712 -0.40331,0.81362 -0.14834,1.06858 l 21.98604,21.98604 c 0.25497,0.25497 0.73146,0.18879 1.06858,-0.14833 l 2.7826,-2.78261 c 0.33711,-0.33711 0.40331,-0.8136 0.14833,-1.06856 l -21.98603,-21.98604 c -0.12749,-0.12749 -0.31035,-0.1748 -0.50352,-0.148 z m 86.34179,0 c -0.19318,-0.0267 -0.37603,0.0205 -0.50351,0.148 l -21.98604,21.98604 c -0.25497,0.25496 -0.18879,0.73145 0.14832,1.06856 l 2.78262,2.78261 c 0.33711,0.33712 0.8136,0.4033 1.06856,0.14833 l 21.98604,-21.98604 c 0.25497,-0.25496 0.18879,-0.73147 -0.14832,-1.06858 l -2.7826,-2.7826 c -0.16857,-0.16855 -0.3719,-0.26952 -0.56507,-0.29632 z m -43.1709,23.10608 c -0.80976,0 -13.62048,7.44053 -14.02536,8.146 -0.40487,0.70546 -0.40487,15.58655 0,16.292 0.40488,0.70547 13.21561,8.14601 14.02536,8.14601 0.80977,0 13.62048,-7.44054 14.02536,-8.14601 0.40489,-0.70545 0.40489,-15.58654 0,-16.292 -0.40488,-0.70547 -13.21559,-8.146 -14.02536,-8.146 z m 0,5.70177 c 0.52637,0 8.85386,4.83654 9.11704,5.29511 0.26319,0.45857 0.26319,10.13167 0,10.59024 -0.26318,0.45858 -8.59067,5.29512 -9.11704,5.29512 -0.52636,0 -8.85386,-4.83654 -9.11704,-5.29512 -0.26318,-0.45857 -0.26318,-10.13167 0,-10.59024 0.26319,-0.45857 8.59068,-5.29511 9.11704,-5.29511 z" />
    <path
       style="display:none;fill:#ffffff;stroke-width:1.05833"
       id="rect11"
       width="6.5728345"
       height="49.771141"
       x="498.92056"
       y="-338.17401"
       transform="rotate(45,3.3131174,2.2024101)"
       d="m 499.92056,-338.17401 h 4.57284 c 0.554,0 1,0.446 1,1 v 47.77114 c 0,0.554 -0.446,1 -1,1 h -4.57284 c -0.554,0 -1,-0.446 -1,-1 v -47.77114 c 0,-0.554 0.446,-1 1,-1 z m -93.31469,93.31469 v 4.57283 c 0,0.554 0.446,1 1,1 h 47.77114 c 0.554,0 1,-0.446 1,-1 v -4.57283 c 0,-0.554 -0.446,-1 -1,-1 h -47.77114 c -0.554,0 -1,0.446 -1,1 z"
       rx="1"
       ry="1" />
    <path
       d="m 602.91229,191.80698 h 19.68502 c 12.13556,0 18.55612,-9.24279 15.24001,-21.87224 l -4.09223,-15.52223 h 10.23056 v -19.05002 h -18.76779 c -12.13556,0 -18.55612,9.45445 -15.09889,22.50724 l 3.95111,14.88723 H 602.91229 Z M 693.4352,148.0625 h -19.54391 v 23.77724 c 0,2.32834 -1.76389,4.09223 -4.09222,4.09223 -2.32834,0 -4.02167,-1.76389 -4.02167,-4.09223 V 148.0625 h -19.5439 v 43.74448 h 47.2017 z m 26.8111,0 h -23.98891 v 56.44448 h 19.54391 v -12.7 h 4.445 c 12.98223,0 23.3539,-9.59557 23.3539,-21.9428 0,-11.99445 -10.37167,-21.80168 -23.3539,-21.80168 z m -6.91445,21.87224 c 0,-3.03389 2.46945,-5.43278 5.43278,-5.43278 2.96334,0 5.36223,2.39889 5.36223,5.43278 0,2.96333 -2.39889,5.36223 -5.36223,5.36223 -2.96333,0 -5.43278,-2.3989 -5.43278,-5.36223 z m 56.37394,-21.87224 h -23.98891 v 56.44448 h 19.5439 v -12.7 h 4.44501 c 12.98223,0 23.3539,-9.59557 23.3539,-21.9428 0,-11.99445 -10.37167,-21.80168 -23.3539,-21.80168 z m -6.91445,21.87224 c 0,-3.03389 2.46944,-5.43278 5.43278,-5.43278 2.96333,0 5.36222,2.39889 5.36222,5.43278 0,2.96333 -2.39889,5.36223 -5.36222,5.36223 -2.96334,0 -5.43278,-2.3989 -5.43278,-5.36223 z m 32.38504,21.87224 h 20.24946 v -56.44449 h -20.24946 z m 37.25334,12.7 h 21.66057 l 14.88723,-56.44448 h -21.02557 l -6.20889,24.55335 c -0.635,2.39889 -3.6689,2.18723 -3.6689,-0.56444 V 148.0625 h -19.82612 v 43.74448 h 17.49779 z"
       id="text1"
       style="font-size:70.5556px;font-family:Megazoid;-inkscape-font-specification:'Megazoid, Normal';text-align:center;text-anchor:middle;display:none;fill:#ffffff;stroke-width:1.05833"
       aria-label="Supply" />
    <path
       d="m 913.26493,198.15698 h 22.36613 v -34.07835 c 0,-2.75167 1.76389,-4.72723 4.02167,-4.72723 2.25778,0 3.88056,1.97556 3.88056,4.72723 v 34.07835 h 22.43668 v -34.07835 c 0,-2.75167 1.83444,-4.72723 3.95111,-4.72723 2.25778,0 3.95112,1.97556 3.95112,4.72723 v 34.07835 h 22.36612 V 141.7125 h -82.97339 z m 103.01117,0 h 13.5467 v -10.23056 h 15.5222 v -33.51391 h -46.35504 v 26.45835 c 0,8.81945 8.46664,17.28612 17.28614,17.28612 z m 0.8467,-25.68224 c 0,-2.82222 2.2577,-5.08 5.08,-5.08 2.8222,0 5.1505,2.25778 5.1505,5.08 0,2.89278 -2.3283,5.15056 -5.1505,5.15056 -2.8223,0 -5.08,-2.25778 -5.08,-5.15056 z"
       id="text1-6"
       style="font-size:70.5556px;font-family:Megazoid;-inkscape-font-specification:'Megazoid, Normal';text-align:center;text-anchor:middle;display:none;fill:#ffffff;stroke-width:1.05833"
       aria-label="Me" />
    <path
       style="display:none;fill:#ffffff;stroke-width:2.11562"
       id="path5"
       d="m 120.09414,113.04889 c -2.49441,0 -41.957301,-22.783908 -43.204507,-24.944133 -1.247207,-2.160226 -1.247208,-47.728043 -2e-6,-49.888268 1.247207,-2.160225 40.710089,-24.944135 43.204509,-24.944135 2.49441,0 41.9573,22.783907 43.20451,24.944133 1.2472,2.160225 1.2472,47.728042 0,49.888267 -1.24721,2.160226 -40.7101,24.944136 -43.20451,24.944136 z"
       transform="matrix(0.49876148,0,0,0.50174078,469.26833,140.00973)" />
    <path
       style="display:none;fill:#000000;stroke-width:3.25363;stroke-dasharray:none"
       id="path6"
       d="m 120.09414,113.04889 c -2.49441,0 -41.957301,-22.783908 -43.204507,-24.944133 -1.247207,-2.160226 -1.247208,-47.728043 -2e-6,-49.888268 1.247207,-2.160225 40.710089,-24.944135 43.204509,-24.944135 2.49441,0 41.9573,22.783907 43.20451,24.944133 1.2472,2.160225 1.2472,47.728042 0,49.888267 -1.24721,2.160226 -40.7101,24.944136 -43.20451,24.944136 z"
       transform="matrix(0.32420866,0,0,0.32614528,490.23112,151.10044)" />
    <path
       id="path7"
       style="display:none;fill:#ffffff;stroke-width:1.05833"
       d="m 529.16602,39.769531 c -34.80715,0.01708 -69.63545,14.718894 -79.5625,64.867189 18.56624,-9.180162 50.74502,-24.931829 79.5625,-24.953126 28.81747,0.0213 60.9982,15.772964 79.56445,24.953126 -9.92706,-50.148295 -44.75731,-64.850107 -79.56445,-64.867189 z" />
    <rect
       style="display:none;fill:#ffffff;stroke-width:0.920405"
       id="rect7"
       width="6.5728345"
       height="49.771141"
       x="525.88019"
       y="93.188118"
       transform="matrix(1.3221601,0,0,1,-170.47639,-5.8208336)"
       rx="1"
       ry="1" />
    <path
       style="display:none;fill:#ffffff;stroke-width:1.05833"
       id="path8"
       width="8.6903391"
       height="49.771141"
       x="500.68497"
       y="-339.99219"
       rx="1.3221601"
       ry="1"
       transform="rotate(45,4.0358629,-0.28681994)"
       d="m 502.00713,-339.99219 h 6.04602 c 0.73247,0 1.32216,0.446 1.32216,1 v 47.77114 c 0,0.554 -0.58969,1 -1.32216,1 h -6.04602 c -0.73248,0 -1.32216,-0.446 -1.32216,-1 v -47.77114 c 0,-0.554 0.58968,-1 1.32216,-1 z m -95.02958,95.02958 v 6.04601 c 0,0.73248 0.446,1.32216 1,1.32216 h 47.77115 c 0.554,0 1,-0.58968 1,-1.32216 v -6.04601 c 0,-0.73248 -0.446,-1.32216 -1,-1.32216 h -47.77115 c -0.554,0 -1,0.58968 -1,1.32216 z" />
    <path
       id="path15"
       style="font-variation-settings:'wght' 800;display:none;fill:#ffffff;stroke-width:1.058"
       d="m 573.3217,125.65087 c -1.4046,0 -23.62583,15.73843 -24.32813,17.23061 -0.18893,0.40142 -0.32292,3.04606 -0.41019,6.61982 h 6.1678 c 0.0589,-1.23527 0.1268,-2.20212 0.21513,-2.38979 0.52987,-1.12583 17.29564,-13.00014 18.35539,-13.00014 1.05974,0 17.82552,11.87431 18.3554,13.00014 0.0883,0.18767 0.15623,1.15452 0.21511,2.38979 h 6.16782 c -0.0873,-3.57376 -0.22128,-6.2184 -0.41021,-6.61982 -0.70229,-1.49218 -22.92354,-17.23061 -24.32812,-17.23061 z m -2.98158,17.03161 c -0.1302,0 -0.23514,0.50204 -0.23514,1.12566 v 31.56933 c 0,0.62361 0.10494,1.12566 0.23514,1.12566 h 5.96315 c 0.1302,0 0.23515,-0.50205 0.23515,-1.12566 v -31.56933 c 0,-0.62362 -0.10495,-1.12566 -0.23515,-1.12566 z m -21.75674,28.03908 c 0.0873,3.57398 0.22126,6.21883 0.41019,6.62026 0.7023,1.49218 22.92353,17.23017 24.32813,17.23017 1.40458,0 23.62583,-15.73799 24.32812,-17.23017 0.18894,-0.40143 0.32292,-3.04628 0.41021,-6.62026 h -6.16782 c -0.0589,1.23528 -0.12679,2.20213 -0.21511,2.3898 -0.52988,1.12582 -17.29566,13.00014 -18.3554,13.00014 -1.05975,0 -17.82552,-11.87432 -18.35539,-13.00014 -0.0883,-0.18767 -0.15624,-1.15452 -0.21513,-2.3898 z" />
    <path
       style="font-variation-settings:'wght' 800;display:none;fill:#ffffff;stroke-width:1.53856"
       id="path17"
       d="m 559.52176,155.37702 c -1.34235,2.32503 -43.81575,26.84706 -46.50046,26.84706 -2.6847,0 -45.15811,-24.52204 -46.50046,-26.84706 -1.34235,-2.32502 -1.34235,-51.36908 0,-53.69411 1.34235,-2.325019 43.81576,-26.847049 46.50046,-26.847049 2.68471,0 45.15811,24.522031 46.50046,26.847049 1.34235,2.32503 1.34235,51.36909 0,53.69411 z"
       transform="matrix(0.6208703,0,0,0.76162445,210.64698,54.806429)" />
    <path
       style="font-variation-settings:'wght' 800;display:none;fill:#000000;stroke-width:2.03922"
       id="path18"
       d="m 559.52176,155.37702 c -1.34235,2.32503 -43.81575,26.84706 -46.50046,26.84706 -2.6847,0 -45.15811,-24.52204 -46.50046,-26.84706 -1.34235,-2.32502 -1.34235,-51.36908 0,-53.69411 1.34235,-2.325019 43.81576,-26.847049 46.50046,-26.847049 2.68471,0 45.15811,24.522031 46.50046,26.847049 1.34235,2.32503 1.34235,51.36909 0,53.69411 z"
       transform="matrix(0.46843904,0,0,0.57463632,288.84746,78.840009)" />
    <rect
       style="font-variation-settings:'wght' 800;display:none;fill:#000000;stroke-width:1.058"
       id="rect18"
       width="171.2968"
       height="25.182693"
       x="455.93512"
       y="140.10666"
       rx="1.2474431"
       ry="0.84902382" />
    <rect
       style="font-variation-settings:'wght' 800;display:none;fill:#ffffff;stroke-width:1.058"
       id="rect19"
       width="7.6347132"
       height="40.135288"
       x="525.3493"
       y="132.01479"
       rx="0.2788974"
       ry="1.3358246" />
    <path
       id="rect24"
       style="font-variation-settings:'wght' 800;display:none;fill:#ffffff;stroke-width:1.058"
       d="m 491.16376,32.927177 41.07898,-20.57611 41.07898,20.57611 v 16.80658 l -41.07898,-20.57611 -41.07898,20.57611 z" />
    <path
       id="path24"
       style="font-variation-settings:'wght' 800;display:none;fill:#ffffff;stroke-width:1.058"
       d="M 491.16376,68.1247 532.24274,47.54859 573.32172,68.1247 V 84.93128 L 532.24274,64.35517 491.16376,84.93128 Z" />
    <g
       id="g30"
       transform="matrix(1.9304821,0,0,1.9304821,-922.09228,-185.02605)"
       style="stroke-width:0.518005">
      <circle
         style="display:inline;fill:#ffffff;stroke-width:0.548221"
         id="path4"
         cx="866.81921"
         cy="174.16809"
         r="7.1052971" />
      <path
         d="m 636.21456,192.65364 q -4.93889,0 -9.31334,-1.76389 -4.30389,-1.83444 -7.47889,-5.15056 -3.10445,-3.31611 -4.65667,-7.83167 l 8.96056,-4.02167 q 1.97556,4.30389 5.43278,6.77334 3.52778,2.46945 7.76112,2.46945 2.25778,0 3.88055,-0.70556 1.62278,-0.70555 2.54001,-1.905 0.91722,-1.27 0.91722,-2.96334 0,-1.83444 -1.12889,-3.10444 -1.12889,-1.34056 -3.52778,-2.11667 l -10.30112,-3.38667 q -6.27945,-2.04611 -9.45445,-5.78556 -3.175,-3.81 -3.175,-9.10167 0,-4.65667 2.25778,-8.18445 2.32833,-3.52778 6.42056,-5.50334 4.16278,-1.97556 9.525,-1.97556 4.72723,0 8.7489,1.62278 4.02167,1.62278 6.91445,4.58612 2.96333,2.96333 4.445,7.12611 l -8.89001,4.02167 q -1.48166,-3.66889 -4.445,-5.715 -2.96333,-2.11667 -6.77334,-2.11667 -2.18722,0 -3.88055,0.70556 -1.69334,0.70555 -2.61056,2.04611 -0.91722,1.27 -0.91722,2.96334 0,1.83444 1.19944,3.24555 1.19945,1.34056 3.59834,2.11667 l 10.08945,3.24556 q 6.35,2.04611 9.45445,5.715 3.175,3.66889 3.175,8.96056 0,4.58612 -2.39889,8.18445 -2.39889,3.52778 -6.63223,5.5739 -4.16278,1.97555 -9.73667,1.97555 z m 39.58165,0 q -4.65667,0 -7.97279,-1.97555 -3.24555,-2.04612 -4.93889,-5.64445 -1.69333,-3.59834 -1.69333,-8.39612 v -23.3539 h 10.58334 v 22.50723 q 0,2.18723 0.84667,3.88056 0.91722,1.62278 2.54,2.54 1.62278,0.91723 3.66889,0.91723 2.11667,0 3.66889,-0.91723 1.62278,-0.91722 2.46945,-2.54 0.91722,-1.69333 0.91722,-3.88056 V 153.28362 H 696.469 v 38.52336 h -9.87778 v -7.62001 l 0.56444,1.69334 q -1.34056,3.45722 -4.37445,5.15055 -2.96333,1.62278 -6.985,1.62278 z m 28.43397,13.26446 v -52.63448 h 9.87778 v 7.33778 l -0.91722,-2.11667 q 1.905,-2.89278 5.15056,-4.445 3.31611,-1.62278 7.54945,-1.62278 5.50334,0 9.94834,2.68111 4.445,2.68112 7.05556,7.26723 2.61056,4.51556 2.61056,10.16001 0,5.57389 -2.61056,10.16 -2.54,4.58612 -6.985,7.26723 -4.44501,2.68111 -10.08946,2.68111 -3.95111,0 -7.33778,-1.41111 -3.31611,-1.48167 -5.36222,-4.30389 l 1.69333,-2.18722 v 21.16668 z m 20.32001,-22.78946 q 2.96334,0 5.22112,-1.34056 2.25778,-1.34056 3.52778,-3.73945 1.27,-2.39889 1.27,-5.50333 0,-3.10445 -1.27,-5.43278 -1.27,-2.3989 -3.52778,-3.73945 -2.25778,-1.41111 -5.22112,-1.41111 -2.82222,0 -5.08,1.34055 -2.18722,1.34056 -3.45722,3.73945 -1.19945,2.39889 -1.19945,5.50334 0,3.10444 1.19945,5.50333 1.27,2.39889 3.45722,3.73945 2.25778,1.34056 5.08,1.34056 z m 27.16393,22.78946 v -52.63448 h 9.87778 v 7.33778 l -0.91722,-2.11667 q 1.905,-2.89278 5.15056,-4.445 3.31611,-1.62278 7.54945,-1.62278 5.50334,0 9.94834,2.68111 4.445,2.68112 7.05556,7.26723 2.61056,4.51556 2.61056,10.16001 0,5.57389 -2.61056,10.16 -2.54,4.58612 -6.985,7.26723 -4.44501,2.68111 -10.08945,2.68111 -3.95112,0 -7.33779,-1.41111 -3.31611,-1.48167 -5.36222,-4.30389 l 1.69333,-2.18722 v 21.16668 z m 20.32001,-22.78946 q 2.96334,0 5.22112,-1.34056 2.25778,-1.34056 3.52778,-3.73945 1.27,-2.39889 1.27,-5.50333 0,-3.10445 -1.27,-5.43278 -1.27,-2.3989 -3.52778,-3.73945 -2.25778,-1.41111 -5.22112,-1.41111 -2.82222,0 -5.08,1.34055 -2.18722,1.34056 -3.45722,3.73945 -1.19945,2.39889 -1.19945,5.50334 0,3.10444 1.19945,5.50333 1.27,2.39889 3.45722,3.73945 2.25778,1.34056 5.08,1.34056 z m 27.16394,8.67834 v -53.4106 h 10.58334 v 53.4106 z m 24.34169,15.52223 q -1.69333,0 -3.31611,-0.28222 -1.55222,-0.28223 -2.75167,-0.91723 v -8.67834 q 0.98778,0.28223 2.32833,0.49389 1.34056,0.21167 2.46945,0.21167 3.10445,0 4.445,-1.48167 1.34056,-1.41111 2.18723,-3.24555 l 2.61055,-5.99723 -0.14111,8.81945 -16.93334,-42.96836 h 11.35945 l 11.21834,30.55057 h -4.23333 l 11.21834,-30.55057 h 11.35945 l -16.51001,42.12169 q -1.55223,3.95112 -3.81001,6.63223 -2.25777,2.68111 -5.15055,3.95111 -2.82223,1.34056 -6.35001,1.34056 z"
         id="text5"
         style="font-size:70.5556px;font-family:'Plus Jakarta Sans';-inkscape-font-specification:'Plus Jakarta Sans, @wght=800';font-variation-settings:'wght' 800;text-align:center;text-anchor:middle;fill:#ffffff;stroke-width:0.548221"
         aria-label="Supply" />
      <path
         d="m 886.20669,198.15698 v -52.56392 h 10.58334 l 19.68501,26.10557 h -4.93889 l 19.12057,-26.10557 h 10.58334 v 52.56392 h -10.93612 v -40.49891 l 4.37445,0.98777 -20.24946,26.10558 h -1.41111 l -19.5439,-26.10558 3.66889,-0.98777 v 40.49891 z m 82.12677,0.84667 q -6.13834,0 -10.6539,-2.68111 -4.51556,-2.75167 -6.985,-7.33779 -2.46945,-4.58611 -2.46945,-10.16 0,-5.78556 2.54,-10.30112 2.61056,-4.51556 6.98501,-7.12612 4.37444,-2.61055 9.87778,-2.61055 4.58612,0 8.1139,1.48166 3.52778,1.41112 5.92667,4.02167 2.46944,2.61056 3.73944,6.06778 1.27,3.38667 1.27,7.40834 0,1.12889 -0.14111,2.25778 -0.0706,1.05834 -0.35277,1.83445 h -28.85725 v -7.76112 h 22.86002 l -5.00945,3.66889 q 0.70556,-3.03389 -0.0706,-5.36222 -0.77612,-2.39889 -2.75167,-3.73945 -1.905,-1.41111 -4.72723,-1.41111 -2.75167,0 -4.72722,1.34055 -1.97556,1.34056 -2.96334,3.95112 -0.98778,2.61056 -0.77611,6.35 -0.28222,3.24556 0.77611,5.71501 1.05834,2.46944 3.24556,3.88055 2.18722,1.34056 5.29167,1.34056 2.82222,0 4.79778,-1.12889 2.04611,-1.12889 3.175,-3.10444 l 8.46667,4.02166 q -1.12888,2.82223 -3.59833,4.9389 -2.39889,2.11666 -5.715,3.31611 -3.31612,1.12889 -7.26723,1.12889 z"
         id="text6"
         style="font-size:70.5556px;font-family:'Plus Jakarta Sans';-inkscape-font-specification:'Plus Jakarta Sans, @wght=800';font-variation-settings:'wght' 800;text-align:center;text-anchor:middle;fill:#ffffff;stroke-width:0.548221"
         aria-label="Me" />
      <path
         id="path25"
         style="font-variation-settings:'wght' 800;fill:#ffffff;stroke-width:0.54805"
         d="m 554.63167,121.41533 -41.07915,20.576 v 16.80621 l 41.07915,-20.576 41.07914,20.576 v -16.80621 z m -41.07915,45.83389 v 16.80621 l 41.07915,20.57652 41.07914,-20.57652 v -16.80621 l -41.07914,20.57601 z" />
      <text
         xml:space="preserve"
         style="font-style:normal;font-variant:normal;font-weight:normal;font-stretch:normal;font-size:70.5556px;font-family:'Plus Jakarta Sans';-inkscape-font-specification:'Plus Jakarta Sans, @wght=800';font-variant-ligatures:normal;font-variant-caps:normal;font-variant-numeric:normal;font-variant-east-asian:normal;font-variation-settings:'wght' 800;text-align:center;text-anchor:middle;display:none;fill:#ffffff;stroke-width:0.548221"
         x="734.28687"
         y="191.80698"
         id="text30"><tspan
           id="tspan30"
           style="font-style:normal;font-variant:normal;font-weight:normal;font-stretch:normal;font-size:70.5556px;font-family:'Plus Jakarta Sans';-inkscape-font-specification:'Plus Jakarta Sans, @wght=800';font-variant-ligatures:normal;font-variant-caps:normal;font-variant-numeric:normal;font-variant-east-asian:normal;font-variation-settings:'wght' 800;stroke-width:0.548221"
           x="0"
           y="0">Supply</tspan></text>
      <text
         xml:space="preserve"
         style="font-style:normal;font-variant:normal;font-weight:normal;font-stretch:normal;font-size:70.5556px;font-family:'Plus Jakarta Sans';-inkscape-font-specification:'Plus Jakarta Sans, @wght=800';font-variant-ligatures:normal;font-variant-caps:normal;font-variant-numeric:normal;font-variant-east-asian:normal;font-variation-settings:'wght' 800;text-align:center;text-anchor:middle;display:none;fill:#ffffff;stroke-width:0.548221"
         x="935.27814"
         y="198.15698"
         id="text31"><tspan
           id="tspan31"
           style="font-style:normal;font-variant:normal;font-weight:normal;font-stretch:normal;font-size:70.5556px;font-family:'Plus Jakarta Sans';-inkscape-font-specification:'Plus Jakarta Sans, @wght=800';font-variant-ligatures:normal;font-variant-caps:normal;font-variant-numeric:normal;font-variant-east-asian:normal;font-variation-settings:'wght' 800;stroke-width:0.548221"
           x="0"
           y="0">Me</tspan></text>
    </g>
    <path
       id="path27"
       style="font-variation-settings:'wght' 800;display:none;fill:#ffffff;stroke-width:1.058"
       d="m 491.16376,32.927177 41.07898,-20.57611 41.07898,20.57611 v 16.80658 l -41.07898,-20.57611 -41.07898,20.57611 z" />
    <path
       id="path28"
       style="font-variation-settings:'wght' 800;display:none;fill:#ffffff;stroke-width:1.058"
       d="M 491.16376,68.1247 532.24274,47.54859 573.32172,68.1247 V 84.93128 L 532.24274,64.35517 491.16376,84.93128 Z" />
    <path
       id="path29"
       style="font-variation-settings:'wght' 800;display:none;fill:#ffffff;stroke-width:1.058"
       d="m 613.17074,32.927177 41.07898,-20.57611 41.07898,20.57611 v 16.80658 l -41.07898,-20.57611 -41.07898,20.57611 z" />
    <path
       id="path30"
       style="font-variation-settings:'wght' 800;display:none;fill:#ffffff;stroke-width:1.058"
       d="m 613.17074,74.991676 41.07898,20.57611 41.07898,-20.57611 v -16.80658 l -41.07898,20.57611 -41.07898,-20.57611 z" />
  </g>
</svg>
