<?xml version="1.0" encoding="UTF-8" standalone="no"?>
<!-- Created with Inkscape (http://www.inkscape.org/) -->

<svg
   width="1000.0001"
   height="1000.0001"
   viewBox="0 0 264.58335 264.58335"
   version="1.1"
   id="svg1"
   xmlns="http://www.w3.org/2000/svg"
   xmlns:svg="http://www.w3.org/2000/svg">
  <defs
     id="defs1" />
  <g
     id="layer1">
    <rect
       style="display:none;fill:#000000;stroke-width:1.05833"
       id="rect4"
       width="1281.1412"
       height="363.79248"
       x="8.668252"
       y="-62.175446" />
    <path
       style="display:none;fill:#ffffff;stroke-width:1.05833"
       id="rect11"
       width="6.5728345"
       height="49.771141"
       x="498.92056"
       y="-338.17401"
       transform="rotate(45,3.3131174,2.2024101)"
       d="m 499.92056,-338.17401 h 4.57284 c 0.554,0 1,0.446 1,1 v 47.77114 c 0,0.554 -0.446,1 -1,1 h -4.57284 c -0.554,0 -1,-0.446 -1,-1 v -47.77114 c 0,-0.554 0.446,-1 1,-1 z m -654.58063,654.58063 v 4.57283 c 0,0.554 0.446,1 1,1 h 47.77114 c 0.554,0 1,-0.446 1,-1 v -4.57283 c 0,-0.554 -0.446,-1 -1,-1 h -47.77114 c -0.554,0 -1,0.446 -1,1 z"
       rx="1"
       ry="1" />
    <path
       id="path7"
       style="display:none;fill:#ffffff;stroke-width:1.05833"
       d="m 529.11473,39.769385 v 39.9139 c 28.83076,0.0024 61.03826,15.768263 79.61567,24.953945 -9.932,-50.173271 -44.79122,-64.865356 -79.61567,-64.867845 z m -793.64609,0 v 39.9139 c -28.83076,0.0024 -61.03826,15.768263 -79.61567,24.953945 9.932,-50.173271 44.79122,-64.865356 79.61567,-64.867845 z" />
    <path
       style="display:none;fill:#ffffff;stroke-width:1.05833"
       id="path8"
       width="8.6903391"
       height="49.771141"
       x="500.68497"
       y="-339.99219"
       rx="1.3221601"
       ry="1"
       transform="rotate(45,4.0358629,-0.28681994)"
       d="m 502.00713,-339.99219 h 6.04602 c 0.73247,0 1.32216,0.446 1.32216,1 v 47.77114 c 0,0.554 -0.58969,1 -1.32216,1 h -6.04602 c -0.73248,0 -1.32216,-0.446 -1.32216,-1 v -47.77114 c 0,-0.554 0.58968,-1 1.32216,-1 z m -656.29551,656.29551 v 6.04602 c 0,0.73248 0.446,1.32216 1,1.32216 h 47.77114 c 0.554,0 1,-0.58968 1,-1.32216 v -6.04602 c 0,-0.73247 -0.446,-1.32216 -1,-1.32216 h -47.77114 c -0.554,0 -1,0.58969 -1,1.32216 z" />
    <g
       id="g30"
       transform="matrix(1.9304821,0,0,1.9304821,-922.09228,-185.02605)"
       style="stroke-width:0.518005">
      <circle
         style="display:none;fill:#ffffff;stroke-width:0.548221"
         id="path4"
         cx="866.81921"
         cy="174.16809"
         r="7.1052971" />
      <path
         d="m 636.21456,192.65364 q -4.93889,0 -9.31334,-1.76389 -4.30389,-1.83444 -7.47889,-5.15056 -3.10445,-3.31611 -4.65667,-7.83167 l 8.96056,-4.02167 q 1.97556,4.30389 5.43278,6.77334 3.52778,2.46945 7.76112,2.46945 2.25778,0 3.88055,-0.70556 1.62278,-0.70555 2.54001,-1.905 0.91722,-1.27 0.91722,-2.96334 0,-1.83444 -1.12889,-3.10444 -1.12889,-1.34056 -3.52778,-2.11667 l -10.30112,-3.38667 q -6.27945,-2.04611 -9.45445,-5.78556 -3.175,-3.81 -3.175,-9.10167 0,-4.65667 2.25778,-8.18445 2.32833,-3.52778 6.42056,-5.50334 4.16278,-1.97556 9.525,-1.97556 4.72723,0 8.7489,1.62278 4.02167,1.62278 6.91445,4.58612 2.96333,2.96333 4.445,7.12611 l -8.89001,4.02167 q -1.48166,-3.66889 -4.445,-5.715 -2.96333,-2.11667 -6.77334,-2.11667 -2.18722,0 -3.88055,0.70556 -1.69334,0.70555 -2.61056,2.04611 -0.91722,1.27 -0.91722,2.96334 0,1.83444 1.19944,3.24555 1.19945,1.34056 3.59834,2.11667 l 10.08945,3.24556 q 6.35,2.04611 9.45445,5.715 3.175,3.66889 3.175,8.96056 0,4.58612 -2.39889,8.18445 -2.39889,3.52778 -6.63223,5.5739 -4.16278,1.97555 -9.73667,1.97555 z m 39.58165,0 q -4.65667,0 -7.97279,-1.97555 -3.24555,-2.04612 -4.93889,-5.64445 -1.69333,-3.59834 -1.69333,-8.39612 v -23.3539 h 10.58334 v 22.50723 q 0,2.18723 0.84667,3.88056 0.91722,1.62278 2.54,2.54 1.62278,0.91723 3.66889,0.91723 2.11667,0 3.66889,-0.91723 1.62278,-0.91722 2.46945,-2.54 0.91722,-1.69333 0.91722,-3.88056 V 153.28362 H 696.469 v 38.52336 h -9.87778 v -7.62001 l 0.56444,1.69334 q -1.34056,3.45722 -4.37445,5.15055 -2.96333,1.62278 -6.985,1.62278 z m 28.43397,13.26446 v -52.63448 h 9.87778 v 7.33778 l -0.91722,-2.11667 q 1.905,-2.89278 5.15056,-4.445 3.31611,-1.62278 7.54945,-1.62278 5.50334,0 9.94834,2.68111 4.445,2.68112 7.05556,7.26723 2.61056,4.51556 2.61056,10.16001 0,5.57389 -2.61056,10.16 -2.54,4.58612 -6.985,7.26723 -4.44501,2.68111 -10.08946,2.68111 -3.95111,0 -7.33778,-1.41111 -3.31611,-1.48167 -5.36222,-4.30389 l 1.69333,-2.18722 v 21.16668 z m 20.32001,-22.78946 q 2.96334,0 5.22112,-1.34056 2.25778,-1.34056 3.52778,-3.73945 1.27,-2.39889 1.27,-5.50333 0,-3.10445 -1.27,-5.43278 -1.27,-2.3989 -3.52778,-3.73945 -2.25778,-1.41111 -5.22112,-1.41111 -2.82222,0 -5.08,1.34055 -2.18722,1.34056 -3.45722,3.73945 -1.19945,2.39889 -1.19945,5.50334 0,3.10444 1.19945,5.50333 1.27,2.39889 3.45722,3.73945 2.25778,1.34056 5.08,1.34056 z m 27.16393,22.78946 v -52.63448 h 9.87778 v 7.33778 l -0.91722,-2.11667 q 1.905,-2.89278 5.15056,-4.445 3.31611,-1.62278 7.54945,-1.62278 5.50334,0 9.94834,2.68111 4.445,2.68112 7.05556,7.26723 2.61056,4.51556 2.61056,10.16001 0,5.57389 -2.61056,10.16 -2.54,4.58612 -6.985,7.26723 -4.44501,2.68111 -10.08945,2.68111 -3.95112,0 -7.33779,-1.41111 -3.31611,-1.48167 -5.36222,-4.30389 l 1.69333,-2.18722 v 21.16668 z m 20.32001,-22.78946 q 2.96334,0 5.22112,-1.34056 2.25778,-1.34056 3.52778,-3.73945 1.27,-2.39889 1.27,-5.50333 0,-3.10445 -1.27,-5.43278 -1.27,-2.3989 -3.52778,-3.73945 -2.25778,-1.41111 -5.22112,-1.41111 -2.82222,0 -5.08,1.34055 -2.18722,1.34056 -3.45722,3.73945 -1.19945,2.39889 -1.19945,5.50334 0,3.10444 1.19945,5.50333 1.27,2.39889 3.45722,3.73945 2.25778,1.34056 5.08,1.34056 z m 27.16394,8.67834 v -53.4106 h 10.58334 v 53.4106 z m 24.34169,15.52223 q -1.69333,0 -3.31611,-0.28222 -1.55222,-0.28223 -2.75167,-0.91723 v -8.67834 q 0.98778,0.28223 2.32833,0.49389 1.34056,0.21167 2.46945,0.21167 3.10445,0 4.445,-1.48167 1.34056,-1.41111 2.18723,-3.24555 l 2.61055,-5.99723 -0.14111,8.81945 -16.93334,-42.96836 h 11.35945 l 11.21834,30.55057 h -4.23333 l 11.21834,-30.55057 h 11.35945 l -16.51001,42.12169 q -1.55223,3.95112 -3.81001,6.63223 -2.25777,2.68111 -5.15055,3.95111 -2.82223,1.34056 -6.35001,1.34056 z"
         id="text5"
         style="font-size:70.5556px;font-family:'Plus Jakarta Sans';-inkscape-font-specification:'Plus Jakarta Sans, @wght=800';font-variation-settings:'wght' 800;text-align:center;text-anchor:middle;display:none;fill:#ffffff;stroke-width:0.548221"
         aria-label="Supply" />
      <path
         d="m 886.20669,198.15698 v -52.56392 h 10.58334 l 19.68501,26.10557 h -4.93889 l 19.12057,-26.10557 h 10.58334 v 52.56392 h -10.93612 v -40.49891 l 4.37445,0.98777 -20.24946,26.10558 h -1.41111 l -19.5439,-26.10558 3.66889,-0.98777 v 40.49891 z m 82.12677,0.84667 q -6.13834,0 -10.6539,-2.68111 -4.51556,-2.75167 -6.985,-7.33779 -2.46945,-4.58611 -2.46945,-10.16 0,-5.78556 2.54,-10.30112 2.61056,-4.51556 6.98501,-7.12612 4.37444,-2.61055 9.87778,-2.61055 4.58612,0 8.1139,1.48166 3.52778,1.41112 5.92667,4.02167 2.46944,2.61056 3.73944,6.06778 1.27,3.38667 1.27,7.40834 0,1.12889 -0.14111,2.25778 -0.0706,1.05834 -0.35277,1.83445 h -28.85725 v -7.76112 h 22.86002 l -5.00945,3.66889 q 0.70556,-3.03389 -0.0706,-5.36222 -0.77612,-2.39889 -2.75167,-3.73945 -1.905,-1.41111 -4.72723,-1.41111 -2.75167,0 -4.72722,1.34055 -1.97556,1.34056 -2.96334,3.95112 -0.98778,2.61056 -0.77611,6.35 -0.28222,3.24556 0.77611,5.71501 1.05834,2.46944 3.24556,3.88055 2.18722,1.34056 5.29167,1.34056 2.82222,0 4.79778,-1.12889 2.04611,-1.12889 3.175,-3.10444 l 8.46667,4.02166 q -1.12888,2.82223 -3.59833,4.9389 -2.39889,2.11666 -5.715,3.31611 -3.31612,1.12889 -7.26723,1.12889 z"
         id="text6"
         style="font-size:70.5556px;font-family:'Plus Jakarta Sans';-inkscape-font-specification:'Plus Jakarta Sans, @wght=800';font-variation-settings:'wght' 800;text-align:center;text-anchor:middle;display:none;fill:#ffffff;stroke-width:0.548221"
         aria-label="Me" />
      <path
         id="path25"
         style="font-variation-settings:'wght' 800;fill:#ffffff;stroke-width:0.54805"
         d="m 546.1765,122.76396 -41.07915,20.576 v 16.80621 l 41.07915,-20.576 41.07914,20.576 v -16.80621 z m -41.07915,45.83389 v 16.80621 l 41.07915,20.57652 41.07914,-20.57652 v -16.80621 l -41.07914,20.57601 z" />
      <text
         xml:space="preserve"
         style="font-style:normal;font-variant:normal;font-weight:normal;font-stretch:normal;font-size:70.5556px;font-family:'Plus Jakarta Sans';-inkscape-font-specification:'Plus Jakarta Sans, @wght=800';font-variant-ligatures:normal;font-variant-caps:normal;font-variant-numeric:normal;font-variant-east-asian:normal;font-variation-settings:'wght' 800;text-align:center;text-anchor:middle;display:none;fill:#ffffff;stroke-width:0.548221"
         x="734.28687"
         y="191.80698"
         id="text30"><tspan
           id="tspan30"
           style="font-style:normal;font-variant:normal;font-weight:normal;font-stretch:normal;font-size:70.5556px;font-family:'Plus Jakarta Sans';-inkscape-font-specification:'Plus Jakarta Sans, @wght=800';font-variant-ligatures:normal;font-variant-caps:normal;font-variant-numeric:normal;font-variant-east-asian:normal;font-variation-settings:'wght' 800;stroke-width:0.548221"
           x="0"
           y="0">Supply</tspan></text>
      <text
         xml:space="preserve"
         style="font-style:normal;font-variant:normal;font-weight:normal;font-stretch:normal;font-size:70.5556px;font-family:'Plus Jakarta Sans';-inkscape-font-specification:'Plus Jakarta Sans, @wght=800';font-variant-ligatures:normal;font-variant-caps:normal;font-variant-numeric:normal;font-variant-east-asian:normal;font-variation-settings:'wght' 800;text-align:center;text-anchor:middle;display:none;fill:#ffffff;stroke-width:0.548221"
         x="935.27814"
         y="198.15698"
         id="text31"><tspan
           id="tspan31"
           style="font-style:normal;font-variant:normal;font-weight:normal;font-stretch:normal;font-size:70.5556px;font-family:'Plus Jakarta Sans';-inkscape-font-specification:'Plus Jakarta Sans, @wght=800';font-variant-ligatures:normal;font-variant-caps:normal;font-variant-numeric:normal;font-variant-east-asian:normal;font-variation-settings:'wght' 800;stroke-width:0.548221"
           x="0"
           y="0">Me</tspan></text>
    </g>
  </g>
</svg>
